# Blender v2.79 (sub 0) OBJ File: 'crate.blend'
# www.blender.org
mtllib crate.mtl
o Cube
v 0.100000 0.000000 -0.100000
v 0.100000 0.000000 0.100000
v -0.100000 0.000000 0.100000
v -0.100000 0.000000 -0.100000
v 0.100000 0.200000 -0.100000
v 0.100000 0.200000 0.100000
v -0.100000 0.200000 0.100000
v -0.100000 0.200000 -0.100000
v 0.100000 0.000000 -0.066667
v 0.100000 0.000000 0.066667
v -0.100000 0.000000 0.066667
v -0.100000 0.000000 -0.066667
v 0.100000 0.200000 -0.066667
v 0.100000 0.200000 0.066667
v -0.100000 0.200000 0.066667
v -0.100000 0.200000 -0.066667
v 0.066667 0.000000 -0.100000
v -0.066667 0.000000 -0.100000
v 0.066667 0.000000 0.100000
v -0.066667 0.000000 0.100000
v 0.066667 0.200000 -0.100000
v -0.066667 0.200000 -0.100000
v 0.066667 0.200000 0.100000
v -0.066667 0.200000 0.100000
v -0.066667 0.200000 -0.066667
v 0.066667 0.200000 -0.066667
v -0.066667 0.200000 0.066667
v 0.066667 0.200000 0.066667
v 0.066667 0.000000 -0.066667
v -0.066667 0.000000 -0.066667
v 0.066667 0.000000 0.066667
v -0.066667 0.000000 0.066667
v 0.100000 0.033333 -0.100000
v 0.100000 0.166667 -0.100000
v 0.100000 0.033333 0.100000
v 0.100000 0.166667 0.100000
v -0.100000 0.033333 0.100000
v -0.100000 0.166667 0.100000
v -0.100000 0.033333 -0.100000
v -0.100000 0.166667 -0.100000
v -0.100000 0.166667 0.066667
v -0.100000 0.033333 0.066667
v -0.100000 0.166667 -0.066667
v -0.100000 0.033333 -0.066667
v 0.100000 0.166667 -0.066667
v 0.100000 0.033333 -0.066667
v 0.100000 0.166667 0.066667
v 0.100000 0.033333 0.066667
v 0.066667 0.033333 -0.100000
v 0.066667 0.166667 -0.100000
v -0.066667 0.033333 -0.100000
v -0.066667 0.166667 -0.100000
v 0.066667 0.166667 0.100000
v 0.066667 0.033333 0.100000
v -0.066667 0.166667 0.100000
v -0.066667 0.033333 0.100000
v -0.066667 0.190000 -0.066667
v 0.066667 0.190000 -0.066667
v -0.066667 0.190000 0.066667
v 0.066667 0.190000 0.066667
v 0.066667 0.166667 0.090000
v 0.066667 0.033333 0.090000
v -0.066667 0.166667 0.090000
v -0.066667 0.033333 0.090000
v -0.090000 0.166667 0.066667
v -0.090000 0.033333 0.066667
v -0.090000 0.166667 -0.066667
v -0.090000 0.033333 -0.066667
v 0.066667 0.033333 -0.090000
v 0.066667 0.166667 -0.090000
v -0.066667 0.033333 -0.090000
v -0.066667 0.166667 -0.090000
v 0.090000 0.166667 -0.066667
v 0.090000 0.033333 -0.066667
v 0.090000 0.166667 0.066667
v 0.090000 0.033333 0.066667
v 0.066667 0.010000 -0.066667
v -0.066667 0.010000 -0.066667
v 0.066667 0.010000 0.066667
v -0.066667 0.010000 0.066667
v 0.100000 0.189947 -0.100000
v 0.100000 0.189947 0.100000
v -0.100000 0.189947 0.100000
v -0.100000 0.189947 -0.100000
v 0.066667 0.189947 -0.100000
v -0.066667 0.189947 -0.100000
v -0.100000 0.189947 0.066667
v -0.100000 0.189947 -0.066667
v 0.100000 0.189947 -0.066667
v 0.100000 0.189947 0.066667
v 0.066667 0.189947 0.100000
v -0.066667 0.189947 0.100000
v -0.100000 0.000000 -0.090000
v -0.100000 0.200000 -0.090000
v 0.100000 0.000000 -0.090000
v 0.100000 0.200000 -0.090000
v 0.066667 0.000000 -0.090000
v -0.066667 0.000000 -0.090000
v 0.066667 0.200000 -0.090000
v -0.066667 0.200000 -0.090000
v 0.100000 0.033333 -0.090000
v 0.100000 0.166667 -0.090000
v -0.100000 0.033333 -0.090000
v -0.100000 0.166667 -0.090000
v 0.100000 0.189947 -0.090000
v -0.100000 0.189947 -0.090000
v 0.100000 0.000000 0.090000
v 0.100000 0.200000 0.090000
v -0.100000 0.000000 0.090000
v -0.100000 0.200000 0.090000
v 0.066667 0.200000 0.090000
v -0.066667 0.200000 0.090000
v 0.066667 0.000000 0.090000
v -0.066667 0.000000 0.090000
v -0.100000 0.033333 0.090000
v -0.100000 0.166667 0.090000
v 0.100000 0.033333 0.090000
v 0.100000 0.166667 0.090000
v -0.100000 0.189947 0.090000
v 0.100000 0.189947 0.090000
v -0.100000 0.009935 0.066667
v -0.100000 0.009935 -0.066667
v 0.100000 0.009935 -0.066667
v 0.100000 0.009935 0.066667
v 0.066667 0.009935 0.100000
v -0.066667 0.009935 0.100000
v 0.100000 0.009935 -0.100000
v 0.100000 0.009935 0.100000
v -0.100000 0.009935 0.100000
v -0.100000 0.009935 -0.100000
v 0.066667 0.009935 -0.100000
v -0.066667 0.009935 -0.100000
v -0.100000 0.009935 -0.090000
v 0.100000 0.009935 -0.090000
v 0.100000 0.009935 0.090000
v -0.100000 0.009935 0.090000
v -0.090000 0.000000 -0.100000
v -0.090000 0.000000 0.100000
v -0.090000 0.200000 -0.100000
v -0.090000 0.200000 0.100000
v -0.090000 0.000000 -0.066667
v -0.090000 0.000000 0.066667
v -0.090000 0.200000 -0.066667
v -0.090000 0.200000 0.066667
v -0.090000 0.166667 -0.100000
v -0.090000 0.033333 -0.100000
v -0.090000 0.033333 0.100000
v -0.090000 0.166667 0.100000
v -0.090000 0.189947 -0.100000
v -0.090000 0.189947 0.100000
v -0.090000 0.000000 -0.090000
v -0.090000 0.200000 -0.090000
v -0.090000 0.200000 0.090000
v -0.090000 0.000000 0.090000
v -0.090000 0.009935 0.100000
v -0.090000 0.009935 -0.100000
v 0.090000 0.200000 -0.066667
v 0.090000 0.200000 0.066667
v 0.090000 0.000000 -0.100000
v 0.090000 0.000000 0.100000
v 0.090000 0.200000 -0.100000
v 0.090000 0.200000 0.100000
v 0.090000 0.000000 -0.066667
v 0.090000 0.000000 0.066667
v 0.090000 0.033333 0.100000
v 0.090000 0.166667 0.100000
v 0.090000 0.166667 -0.100000
v 0.090000 0.033333 -0.100000
v 0.090000 0.189947 -0.100000
v 0.090000 0.189947 0.100000
v 0.090000 0.200000 -0.090000
v 0.090000 0.000000 -0.090000
v 0.090000 0.000000 0.090000
v 0.090000 0.200000 0.090000
v 0.090000 0.009935 0.100000
v 0.090000 0.009935 -0.100000
vt 0.335071 0.963464
vt 0.352391 0.963464
vt 0.352391 0.980785
vt 0.335071 0.980785
vt 0.592515 0.578917
vt 0.592515 0.596238
vt 0.575195 0.596238
vt 0.575195 0.578917
vt 0.592515 0.232411
vt 0.592515 0.249824
vt 0.575195 0.249825
vt 0.575195 0.232412
vt 0.557782 0.578917
vt 0.557782 0.596238
vt 0.522069 0.613651
vt 0.522069 0.596238
vt 0.539389 0.596238
vt 0.539389 0.613651
vt 0.743495 0.266940
vt 0.726287 0.266940
vt 0.726287 0.249619
vt 0.743495 0.249620
vt 0.592516 0.613651
vt 0.632930 0.596238
vt 0.632930 0.613651
vt 0.112340 0.708634
vt 0.129753 0.708634
vt 0.129753 0.939576
vt 0.112339 0.939576
vt 0.522069 0.232412
vt 0.522069 0.249825
vt 0.481654 0.249825
vt 0.481654 0.232412
vt 0.788724 0.231432
vt 0.771311 0.231432
vt 0.771311 0.000490
vt 0.788724 0.000490
vt 0.522069 0.578918
vt 0.481654 0.596238
vt 0.481654 0.578918
vt 0.147073 0.939576
vt 0.147073 0.708634
vt 0.708966 0.266940
vt 0.668551 0.266940
vt 0.668551 0.249619
vt 0.708966 0.249619
vt 0.526623 0.927198
vt 0.526623 0.696255
vt 0.543944 0.696255
vt 0.543944 0.927198
vt 0.043010 0.959129
vt 0.043010 0.728186
vt 0.083425 0.728186
vt 0.083425 0.959129
vt 0.486208 0.696255
vt 0.486209 0.927198
vt 0.468888 0.927198
vt 0.468888 0.696255
vt 0.708966 0.578712
vt 0.668551 0.578712
vt 0.668551 0.538297
vt 0.708966 0.538297
vt 0.668551 0.307355
vt 0.708966 0.307355
vt 0.753991 0.231432
vt 0.713576 0.231432
vt 0.713575 0.000490
vt 0.753991 0.000490
vt 0.187488 0.939576
vt 0.187488 0.708634
vt 0.204809 0.708634
vt 0.204809 0.939576
vt 0.522069 0.267145
vt 0.522069 0.307560
vt 0.481654 0.307560
vt 0.481654 0.267145
vt 0.522069 0.538503
vt 0.481654 0.538503
vt 0.743495 0.578712
vt 0.726287 0.578712
vt 0.726287 0.538297
vt 0.743495 0.538297
vt 0.726287 0.307355
vt 0.743495 0.307355
vt 0.557782 0.267145
vt 0.575195 0.267145
vt 0.575195 0.307560
vt 0.557782 0.307560
vt 0.575195 0.538502
vt 0.557782 0.538503
vt 0.592515 0.267145
vt 0.592515 0.307560
vt 0.592515 0.538502
vt 0.335071 0.651692
vt 0.352391 0.651692
vt 0.352392 0.692107
vt 0.335071 0.692107
vt 0.352391 0.923050
vt 0.335071 0.923050
vt 0.685735 0.932690
vt 0.645207 0.932689
vt 0.645207 0.701747
vt 0.685735 0.701747
vt 0.627886 0.932690
vt 0.627886 0.701747
vt 0.685735 0.973105
vt 0.645207 0.973105
vt 0.722926 0.868370
vt 0.722926 0.637427
vt 0.763341 0.637427
vt 0.763341 0.868370
vt 0.622878 0.922976
vt 0.582555 0.922976
vt 0.582556 0.692034
vt 0.622878 0.692034
vt 0.937868 0.272826
vt 0.937868 0.503769
vt 0.920547 0.503769
vt 0.920547 0.272826
vt 0.622878 0.963391
vt 0.582556 0.963391
vt 0.817652 0.845388
vt 0.817652 0.614446
vt 0.858067 0.614446
vt 0.858067 0.845388
vt 0.802322 0.538410
vt 0.761795 0.538410
vt 0.761795 0.307468
vt 0.802322 0.307468
vt 0.431750 0.697389
vt 0.431750 0.466446
vt 0.449071 0.466446
vt 0.449071 0.697389
vt 0.802322 0.578825
vt 0.761795 0.578825
vt 0.391335 0.697389
vt 0.391335 0.466446
vt 0.997546 0.920619
vt 0.957019 0.920619
vt 0.957019 0.689676
vt 0.997546 0.689677
vt 0.982190 0.231432
vt 0.982190 0.000490
vt 0.999510 0.000490
vt 0.999510 0.231432
vt 0.997546 0.961034
vt 0.957019 0.961034
vt 0.883060 0.231432
vt 0.883060 0.000490
vt 0.923475 0.000490
vt 0.923475 0.231432
vt 0.860945 0.613466
vt 0.820623 0.613466
vt 0.820623 0.596146
vt 0.860945 0.596146
vt 0.847439 0.231432
vt 0.847439 0.000490
vt 0.864760 0.000490
vt 0.864760 0.231432
vt 0.997546 0.649262
vt 0.957019 0.649262
vt 0.957019 0.631941
vt 0.997546 0.631941
vt 0.882081 0.000490
vt 0.882081 0.231432
vt 0.997546 0.995675
vt 0.957019 0.995675
vt 0.957019 0.978355
vt 0.997546 0.978355
vt 0.431733 0.943807
vt 0.431734 0.712865
vt 0.449054 0.712865
vt 0.449054 0.943807
vt 0.802322 0.267053
vt 0.761795 0.267053
vt 0.761795 0.249732
vt 0.802322 0.249732
vt 0.688285 0.868370
vt 0.688285 0.637427
vt 0.705605 0.637427
vt 0.705605 0.868370
vt 0.231432 0.232411
vt 0.231432 0.463354
vt 0.000490 0.463354
vt 0.000490 0.232411
vt 0.632930 0.538502
vt 0.632930 0.307560
vt 0.650251 0.307560
vt 0.650251 0.538502
vt 0.464333 0.538503
vt 0.464333 0.307560
vt 0.696255 0.231432
vt 0.696255 0.000490
vt 0.463354 0.000490
vt 0.463354 0.231432
vt 0.232411 0.231432
vt 0.232411 0.000490
vt 0.234018 0.715894
vt 0.234019 0.946836
vt 0.216698 0.946836
vt 0.216698 0.715894
vt 0.391319 0.712865
vt 0.391319 0.943807
vt 0.373998 0.943807
vt 0.373998 0.712865
vt 0.780662 0.637427
vt 0.780662 0.868370
vt 0.464333 0.000490
vt 0.695276 0.000490
vt 0.695276 0.231432
vt 0.464333 0.231432
vt 0.940795 0.000490
vt 0.940795 0.231432
vt 0.939698 0.920619
vt 0.939698 0.689676
vt 0.820623 0.307468
vt 0.820623 0.538410
vt 0.803302 0.538410
vt 0.803302 0.307468
vt 0.232411 0.463354
vt 0.232411 0.232411
vt 0.463354 0.232411
vt 0.463354 0.463354
vt 0.807024 0.000490
vt 0.807024 0.231432
vt 0.789704 0.231432
vt 0.789704 0.000490
vt 0.875388 0.614446
vt 0.875388 0.845388
vt 0.565235 0.922976
vt 0.565235 0.692034
vt 0.231432 0.000490
vt 0.231432 0.231432
vt 0.000490 0.231432
vt 0.000490 0.000490
vt 0.902247 0.538410
vt 0.902247 0.307467
vt 0.919568 0.307467
vt 0.919568 0.538410
vt 0.744474 0.538410
vt 0.744474 0.307468
vt 0.919299 0.845388
vt 0.919299 0.614446
vt 0.936620 0.614446
vt 0.936620 0.845388
vt 0.231432 0.695276
vt 0.000490 0.695276
vt 0.000490 0.464333
vt 0.231432 0.464333
vt 0.294656 0.692107
vt 0.294656 0.923050
vt 0.277335 0.923050
vt 0.277335 0.692107
vt 0.651230 0.538297
vt 0.651230 0.307355
vt 0.100745 0.728186
vt 0.100745 0.959129
vt 0.539389 0.578918
vt 0.556802 0.578918
vt 0.556802 0.596238
vt 0.539389 0.267145
vt 0.556802 0.267145
vt 0.556802 0.307560
vt 0.539389 0.307560
vt 0.556802 0.538503
vt 0.539389 0.538503
vt 0.274341 0.715894
vt 0.274341 0.946836
vt 0.234018 0.675479
vt 0.274341 0.675479
vt 0.861925 0.538410
vt 0.861925 0.307467
vt 0.902247 0.578825
vt 0.861925 0.578825
vt 0.860945 0.307468
vt 0.860945 0.538410
vt 0.820623 0.267053
vt 0.860945 0.267053
vt 0.820623 0.578825
vt 0.860945 0.578825
vt 0.820623 0.232411
vt 0.860945 0.232411
vt 0.860945 0.249732
vt 0.820623 0.249732
vt 0.902247 0.267053
vt 0.861925 0.267053
vt 0.861925 0.249732
vt 0.902247 0.249732
vt 0.902247 0.596146
vt 0.861925 0.596146
vt 0.941775 0.231432
vt 0.941775 0.000490
vt 0.800331 0.614446
vt 0.800331 0.845388
vt 0.783011 0.845388
vt 0.783011 0.614446
vt 0.802322 0.596146
vt 0.761795 0.596146
vt 0.539389 0.232411
vt 0.539389 0.249824
vt 0.481654 0.613651
vt 0.878884 0.845388
vt 0.878885 0.614446
vt 0.466375 0.712865
vt 0.466375 0.943807
vt 0.294656 0.651692
vt 0.632930 0.267145
vt 0.575195 0.613651
vt 0.632930 0.232411
vt 0.632930 0.249824
vt 0.632930 0.578917
vt 0.294656 0.963464
vt 0.294656 0.980785
vt 0.352391 0.997993
vt 0.335071 0.997993
vt 0.294656 0.634371
vt 0.294656 0.617163
vt 0.335071 0.617163
vt 0.335071 0.634371
vt 0.726287 0.596033
vt 0.726287 0.613241
vt 0.708966 0.613241
vt 0.708966 0.596033
vt 0.668552 0.232411
vt 0.708966 0.232412
vt 0.352391 0.617163
vt 0.352391 0.634372
vt 0.369599 0.963464
vt 0.369599 0.980785
vt 0.726287 0.232412
vt 0.294656 0.997993
vt 0.561152 0.696255
vt 0.561152 0.927197
vt 0.668551 0.613241
vt 0.668551 0.596033
vt 0.025689 0.959129
vt 0.008481 0.959129
vt 0.008481 0.728186
vt 0.025689 0.728186
vt 0.369599 0.651692
vt 0.369599 0.692107
vt 0.369599 0.923050
vt 0.978396 0.272826
vt 0.978396 0.503769
vt 0.937868 0.232411
vt 0.978396 0.232411
vt 0.957019 0.614620
vt 0.997546 0.614620
vt 0.978396 0.544183
vt 0.937868 0.544183
vt 0.274341 0.987251
vt 0.234018 0.987251
vt 0.645207 0.661332
vt 0.685735 0.661332
vt 0.582556 0.651619
vt 0.622878 0.651619
vt 0.802322 0.613466
vt 0.761795 0.613466
vt 0.369599 0.634371
vt 0.861925 0.232411
vt 0.902247 0.232412
vt 0.556802 0.249824
vt 0.902247 0.613467
vt 0.861925 0.613467
vt 0.761795 0.232411
vt 0.802322 0.232412
vt 0.557782 0.249824
vt 0.743495 0.596033
vn 0.0000 -1.0000 0.0000
vn 0.0000 1.0000 0.0000
vn 1.0000 0.0000 0.0000
vn -0.0000 -0.0000 1.0000
vn -1.0000 0.0000 -0.0000
vn 0.0000 0.0000 -1.0000
usemtl Material
s off
f 154/1/1 138/2/1 3/3/1 109/4/1
f 153/5/2 110/6/2 7/7/2 140/8/2
f 120/9/3 108/10/3 6/11/3 82/12/3
f 150/13/4 140/8/4 7/7/4 83/14/4
f 106/15/5 94/16/5 8/17/5 84/18/5
f 156/19/6 137/20/6 4/21/6 130/22/6
f 119/23/5 110/6/5 15/24/5 87/25/5
f 87/26/5 15/27/5 16/28/5 88/29/5
f 105/30/3 96/31/3 13/32/3 89/33/3
f 89/34/3 13/35/3 14/36/3 90/37/3
f 152/38/2 94/16/2 16/39/2 143/40/2
f 143/41/2 16/28/2 15/27/2 144/42/2
f 151/43/1 141/44/1 12/45/1 93/46/1
f 141/47/1 142/48/1 11/49/1 12/50/1
f 163/51/1 164/52/1 31/53/1 29/54/1
f 32/55/3 30/56/3 78/57/3 80/58/3
f 172/59/1 163/60/1 29/61/1 97/62/1
f 97/62/1 29/61/1 30/63/1 98/64/1
f 157/65/2 26/66/2 28/67/2 158/68/2
f 25/69/3 27/70/3 59/71/3 57/72/3
f 171/73/2 99/74/2 26/75/2 157/76/2
f 99/74/2 100/77/2 25/78/2 26/75/2
f 176/79/6 159/80/6 17/81/6 131/82/6
f 131/82/6 17/81/6 18/83/6 132/84/6
f 170/85/4 162/86/4 23/87/4 91/88/4
f 91/88/4 23/87/4 24/89/4 92/90/4
f 174/91/2 111/92/2 23/87/2 162/86/2
f 111/92/2 112/93/2 24/89/2 23/87/2
f 173/94/1 160/95/1 19/96/1 113/97/1
f 113/97/1 19/96/1 20/98/1 114/99/1
f 125/100/4 54/101/4 56/102/4 126/103/4
f 56/102/2 54/101/2 62/104/2 64/105/2
f 175/106/4 165/107/4 54/101/4 125/100/4
f 165/108/4 166/109/4 53/110/4 54/111/4
f 85/112/6 50/113/6 52/114/6 86/115/6
f 49/116/2 51/117/2 71/118/2 69/119/2
f 169/120/6 167/121/6 50/113/6 85/112/6
f 167/122/6 168/123/6 49/124/6 50/125/6
f 123/126/3 46/127/3 48/128/3 124/129/3
f 46/130/4 45/131/4 73/132/4 74/133/4
f 134/134/3 101/135/3 46/127/3 123/126/3
f 101/136/3 102/137/3 45/131/3 46/130/3
f 121/138/5 42/139/5 44/140/5 122/141/5
f 43/142/4 44/143/4 68/144/4 67/145/4
f 136/146/5 115/147/5 42/139/5 121/138/5
f 115/148/5 116/149/5 41/150/5 42/151/5
f 149/152/6 145/153/6 40/154/6 84/155/6
f 145/156/6 146/157/6 39/158/6 40/159/6
f 133/160/5 103/161/5 39/162/5 130/163/5
f 103/164/5 104/165/5 40/159/5 39/158/5
f 155/166/4 147/167/4 37/168/4 129/169/4
f 147/170/4 148/171/4 38/172/4 37/173/4
f 135/174/3 117/175/3 35/176/3 128/177/3
f 117/178/3 118/179/3 36/180/3 35/181/3
f 58/182/2 57/183/2 59/184/2 60/185/2
f 27/186/6 28/187/6 60/188/6 59/189/6
f 26/75/4 25/78/4 57/190/4 58/191/4
f 28/67/5 26/66/5 58/192/5 60/193/5
f 62/194/4 61/195/4 63/196/4 64/197/4
f 53/198/1 55/199/1 63/200/1 61/201/1
f 55/202/3 56/203/3 64/204/3 63/205/3
f 54/111/5 53/110/5 61/206/5 62/207/5
f 66/208/5 65/209/5 67/210/5 68/211/5
f 42/151/6 41/150/6 65/212/6 66/213/6
f 44/140/2 42/139/2 66/214/2 68/215/2
f 41/216/1 43/217/1 67/218/1 65/219/1
f 70/220/6 69/221/6 71/222/6 72/223/6
f 51/224/3 52/225/3 72/226/3 71/227/3
f 50/125/5 49/124/5 69/228/5 70/229/5
f 52/114/1 50/113/1 70/230/1 72/231/1
f 74/232/3 73/233/3 75/234/3 76/235/3
f 45/236/1 47/237/1 75/238/1 73/239/1
f 48/128/2 46/127/2 74/240/2 76/241/2
f 47/242/6 48/243/6 76/244/6 75/245/6
f 77/246/1 79/247/1 80/248/1 78/249/1
f 31/250/6 32/251/6 80/252/6 79/253/6
f 30/63/4 29/61/4 77/254/4 78/255/4
f 29/54/5 31/53/5 79/256/5 77/257/5
f 139/258/6 149/259/6 84/260/6 8/17/6
f 161/261/6 169/262/6 85/263/6 21/264/6
f 21/264/6 85/263/6 86/265/6 22/266/6
f 53/198/4 91/267/4 92/268/4 55/199/4
f 166/269/4 170/270/4 91/267/4 53/198/4
f 45/236/3 89/271/3 90/272/3 47/237/3
f 102/273/3 105/274/3 89/271/3 45/236/3
f 41/216/5 87/275/5 88/276/5 43/217/5
f 116/277/5 119/278/5 87/275/5 41/216/5
f 104/279/5 106/280/5 84/155/5 40/154/5
f 148/281/4 150/282/4 83/283/4 38/284/4
f 118/285/3 120/286/3 82/287/3 36/288/3
f 43/217/5 88/276/5 106/280/5 104/279/5
f 34/289/3 81/290/3 105/274/3 102/273/3
f 44/143/5 43/142/5 104/291/5 103/292/5
f 122/141/5 44/140/5 103/161/5 133/160/5
f 33/293/3 34/294/3 102/295/3 101/296/3
f 127/297/3 33/298/3 101/135/3 134/134/3
f 21/264/2 22/266/2 100/77/2 99/74/2
f 161/261/2 21/264/2 99/74/2 171/73/2
f 17/81/1 97/62/1 98/64/1 18/83/1
f 159/80/1 172/59/1 97/62/1 17/81/1
f 137/20/1 151/43/1 93/46/1 4/21/1
f 139/258/2 8/17/2 94/16/2 152/38/2
f 81/299/3 5/300/3 96/31/3 105/30/3
f 88/301/5 16/39/5 94/16/5 106/15/5
f 47/237/3 90/272/3 120/286/3 118/285/3
f 38/284/5 83/283/5 119/278/5 116/277/5
f 48/243/3 47/242/3 118/302/3 117/303/3
f 124/129/3 48/128/3 117/175/3 135/174/3
f 37/173/5 38/172/5 116/304/5 115/305/5
f 129/169/5 37/168/5 115/147/5 136/146/5
f 31/250/1 113/97/1 114/99/1 32/251/1
f 164/306/1 173/94/1 113/97/1 31/250/1
f 28/187/2 27/186/2 112/93/2 111/92/2
f 158/307/2 28/187/2 111/92/2 174/91/2
f 83/308/5 7/7/5 110/6/5 119/23/5
f 90/309/3 14/310/3 108/10/3 120/9/3
f 144/311/2 15/24/2 110/6/2 153/5/2
f 142/312/1 154/1/1 109/4/1 11/313/1
f 3/3/5 129/314/5 136/315/5 109/4/5
f 10/316/3 124/317/3 135/318/3 107/319/3
f 1/320/3 127/321/3 134/322/3 95/323/3
f 12/45/5 122/324/5 133/325/5 93/46/5
f 107/319/3 135/318/3 128/326/3 2/327/3
f 138/2/4 155/328/4 129/329/4 3/3/4
f 93/46/5 133/325/5 130/330/5 4/21/5
f 109/4/5 136/315/5 121/331/5 11/313/5
f 11/49/5 121/332/5 122/333/5 12/50/5
f 95/323/3 134/322/3 123/334/3 9/335/3
f 9/336/3 123/337/3 124/338/3 10/339/3
f 160/95/4 175/340/4 125/341/4 19/96/4
f 19/96/4 125/341/4 126/342/4 20/98/4
f 49/116/6 131/343/6 132/344/6 51/117/6
f 168/345/6 176/346/6 131/343/6 49/116/6
f 146/347/6 156/348/6 130/163/6 39/162/6
f 51/117/6 132/344/6 156/349/6 146/350/6
f 20/98/4 126/342/4 155/328/4 138/2/4
f 32/251/1 114/99/1 154/1/1 142/312/1
f 27/186/2 144/311/2 153/5/2 112/93/2
f 22/266/2 139/258/2 152/38/2 100/77/2
f 18/83/1 98/64/1 151/43/1 137/20/1
f 55/199/4 92/268/4 150/351/4 148/352/4
f 22/266/6 86/265/6 149/259/6 139/258/6
f 56/203/4 55/202/4 148/171/4 147/170/4
f 126/103/4 56/102/4 147/353/4 155/354/4
f 52/225/6 51/224/6 146/157/6 145/156/6
f 86/115/6 52/114/6 145/355/6 149/356/6
f 30/56/1 32/55/1 142/48/1 141/47/1
f 98/64/1 30/63/1 141/44/1 151/43/1
f 25/69/2 143/41/2 144/42/2 27/70/2
f 100/77/2 152/38/2 143/40/2 25/78/2
f 132/84/6 18/83/6 137/20/6 156/19/6
f 92/90/4 24/89/4 140/8/4 150/13/4
f 112/93/2 153/5/2 140/8/2 24/89/2
f 114/99/1 20/98/1 138/2/1 154/1/1
f 33/298/6 127/297/6 176/357/6 168/358/6
f 2/327/4 128/359/4 175/340/4 160/95/4
f 14/310/2 158/307/2 174/91/2 108/10/2
f 10/316/1 107/319/1 173/94/1 164/306/1
f 1/320/1 95/323/1 172/59/1 159/80/1
f 5/300/2 161/261/2 171/73/2 96/31/2
f 36/288/4 82/287/4 170/360/4 166/361/4
f 5/300/6 81/362/6 169/262/6 161/261/6
f 34/294/6 33/293/6 168/123/6 167/122/6
f 81/290/6 34/289/6 167/363/6 169/364/6
f 35/181/4 36/180/4 166/109/4 165/108/4
f 128/177/4 35/176/4 165/365/4 175/366/4
f 107/319/1 2/327/1 160/95/1 173/94/1
f 108/10/2 174/91/2 162/86/2 6/11/2
f 82/367/4 6/11/4 162/86/4 170/85/4
f 127/368/6 1/320/6 159/80/6 176/79/6
f 96/31/2 171/73/2 157/76/2 13/32/2
f 13/35/2 157/65/2 158/68/2 14/36/2
f 95/323/1 9/335/1 163/60/1 172/59/1
f 9/336/1 10/339/1 164/52/1 163/51/1
