# Blender v2.79 (sub 0) OBJ File: ''
# www.blender.org
mtllib roof.mtl
o Cube
v -10.000002 0.000000 9.745518
v 9.999999 0.000000 9.745520
v 9.999999 0.150000 0.200002
v -10.000002 0.150000 0.199998
v 9.999999 0.150000 0.569233
v 9.999999 0.150000 0.969233
v -10.000002 0.150000 0.969229
v -10.000002 0.150000 0.569229
v 9.999999 0.150000 1.338464
v 9.999999 0.150000 1.738464
v -10.000002 0.150000 1.738460
v -10.000002 0.150000 1.338460
v 9.999999 0.150000 2.107694
v 9.999999 0.150000 2.507694
v -10.000002 0.150000 2.507691
v -10.000002 0.150000 2.107691
v 9.999999 0.150000 2.876925
v 9.999999 0.150000 3.276925
v -10.000002 0.150000 3.276922
v -10.000002 0.150000 2.876921
v 9.999999 0.150000 3.646155
v 9.999999 0.150000 4.046155
v -10.000002 0.150000 4.046152
v -10.000002 0.150000 3.646152
v 9.999999 0.150000 4.415386
v 9.999999 0.150000 4.815386
v -10.000002 0.150000 4.815383
v -10.000002 0.150000 4.415383
v 9.999999 0.150000 5.184617
v 9.999999 0.150000 5.584617
v -10.000002 0.150000 5.584614
v -10.000002 0.150000 5.184614
v 9.999999 0.150000 5.953848
v 9.999999 0.150000 6.353848
v -10.000002 0.150000 6.353845
v -10.000002 0.150000 5.953845
v 9.999999 0.150000 6.723079
v 9.999999 0.150000 7.123078
v -10.000002 0.150000 7.123075
v -10.000002 0.150000 6.723076
v 9.999999 0.150000 7.492310
v 9.999999 0.150000 7.892309
v -10.000002 0.150000 7.892306
v -10.000002 0.150000 7.492307
v 9.999999 0.150000 8.261540
v 9.999999 0.150000 8.661540
v -10.000002 0.150000 8.661537
v -10.000002 0.150000 8.261538
v 9.999999 0.150000 9.030770
v 9.999999 0.150000 9.430770
v -10.000002 0.150000 9.430768
v -10.000002 0.150000 9.030768
v 9.999999 0.000000 0.260270
v 9.999999 0.060268 0.200002
v 9.999999 0.000000 1.029500
v 9.999999 0.060268 0.969233
v 9.999999 0.060268 0.569233
v 9.999999 0.000000 0.508965
v 9.999999 0.000000 1.798731
v 9.999999 0.060268 1.738464
v 9.999999 0.060268 1.338464
v 9.999999 0.000000 1.278196
v 9.999999 0.000000 2.567962
v 9.999999 0.060268 2.507694
v 9.999999 0.060268 2.107694
v 9.999999 0.000000 2.047426
v 9.999999 0.000000 3.337193
v 9.999999 0.060268 3.276925
v 9.999999 0.060268 2.876925
v 9.999999 0.000000 2.816657
v 9.999999 0.000000 4.106423
v 9.999999 0.060268 4.046155
v 9.999999 0.060268 3.646155
v 9.999999 0.000000 3.585888
v 9.999999 0.000000 4.875653
v 9.999999 0.060268 4.815386
v 9.999999 0.060268 4.415386
v 9.999999 0.000000 4.355119
v 9.999999 0.000000 5.644884
v 9.999999 0.060268 5.584617
v 9.999999 0.060268 5.184617
v 9.999999 0.000000 5.124350
v 9.999999 0.000000 6.414115
v 9.999999 0.060268 6.353848
v 9.999999 0.060268 5.953848
v 9.999999 0.000000 5.893580
v 9.999999 0.000000 7.183346
v 9.999999 0.060268 7.123078
v 9.999999 0.060268 6.723079
v 9.999999 0.000000 6.662811
v 9.999999 0.000000 7.952577
v 9.999999 0.060268 7.892309
v 9.999999 0.060268 7.492310
v 9.999999 0.000000 7.432042
v 9.999999 0.000000 8.721807
v 9.999999 0.060268 8.661540
v 9.999999 0.060268 8.261540
v 9.999999 0.000000 8.201273
v 9.999999 0.000000 9.491037
v 9.999999 0.060268 9.430770
v 9.999999 0.060268 9.030770
v 9.999999 0.000000 8.970503
v -10.000002 0.000000 8.970501
v -10.000002 0.060268 9.030768
v -10.000002 0.060268 9.430768
v -10.000002 0.000000 9.491035
v -10.000002 0.000000 8.201270
v -10.000002 0.060268 8.261538
v -10.000002 0.060268 8.661537
v -10.000002 0.000000 8.721805
v -10.000002 0.000000 7.432039
v -10.000002 0.060268 7.492307
v -10.000002 0.060268 7.892306
v -10.000002 0.000000 7.952574
v -10.000002 0.000000 6.662808
v -10.000002 0.060268 6.723076
v -10.000002 0.060268 7.123075
v -10.000002 0.000000 7.183343
v -10.000002 0.000000 5.893578
v -10.000002 0.060268 5.953845
v -10.000002 0.060268 6.353845
v -10.000002 0.000000 6.414112
v -10.000002 0.000000 5.124347
v -10.000002 0.060268 5.184614
v -10.000002 0.060268 5.584614
v -10.000002 0.000000 5.644881
v -10.000002 0.000000 4.355116
v -10.000002 0.060268 4.415383
v -10.000002 0.060268 4.815383
v -10.000002 0.000000 4.875650
v -10.000002 0.000000 3.585885
v -10.000002 0.060268 3.646152
v -10.000002 0.060268 4.046152
v -10.000002 0.000000 4.106420
v -10.000002 0.000000 2.816654
v -10.000002 0.060268 2.876921
v -10.000002 0.060268 3.276922
v -10.000002 0.000000 3.337189
v -10.000002 0.000000 2.047423
v -10.000002 0.060268 2.107691
v -10.000002 0.060268 2.507691
v -10.000002 0.000000 2.567958
v -10.000002 0.000000 1.278192
v -10.000002 0.060268 1.338460
v -10.000002 0.060268 1.738460
v -10.000002 0.000000 1.798728
v -10.000002 0.000000 0.508961
v -10.000002 0.060268 0.569229
v -10.000002 0.060268 0.969229
v -10.000002 0.000000 1.029497
v -10.000002 0.060268 0.199998
v -10.000002 0.000000 0.260266
v -10.000002 0.000000 -9.745518
v 9.999999 0.000000 -9.745520
v 9.999999 0.150000 -0.200002
v -10.000002 0.150000 -0.199998
v 9.999999 0.150000 -0.569233
v 9.999999 0.150000 -0.969233
v -10.000002 0.150000 -0.969229
v -10.000002 0.150000 -0.569229
v 9.999999 0.150000 -1.338464
v 9.999999 0.150000 -1.738464
v -10.000002 0.150000 -1.738460
v -10.000002 0.150000 -1.338460
v 9.999999 0.150000 -2.107694
v 9.999999 0.150000 -2.507694
v -10.000002 0.150000 -2.507691
v -10.000002 0.150000 -2.107691
v 9.999999 0.150000 -2.876925
v 9.999999 0.150000 -3.276925
v -10.000002 0.150000 -3.276922
v -10.000002 0.150000 -2.876921
v 9.999999 0.150000 -3.646155
v 9.999999 0.150000 -4.046155
v -10.000002 0.150000 -4.046152
v -10.000002 0.150000 -3.646152
v 9.999999 0.150000 -4.415386
v 9.999999 0.150000 -4.815386
v -10.000002 0.150000 -4.815383
v -10.000002 0.150000 -4.415383
v 9.999999 0.150000 -5.184617
v 9.999999 0.150000 -5.584617
v -10.000002 0.150000 -5.584614
v -10.000002 0.150000 -5.184614
v 9.999999 0.150000 -5.953848
v 9.999999 0.150000 -6.353848
v -10.000002 0.150000 -6.353845
v -10.000002 0.150000 -5.953845
v 9.999999 0.150000 -6.723079
v 9.999999 0.150000 -7.123078
v -10.000002 0.150000 -7.123075
v -10.000002 0.150000 -6.723076
v 9.999999 0.150000 -7.492310
v 9.999999 0.150000 -7.892309
v -10.000002 0.150000 -7.892306
v -10.000002 0.150000 -7.492307
v 9.999999 0.150000 -8.261540
v 9.999999 0.150000 -8.661540
v -10.000002 0.150000 -8.661537
v -10.000002 0.150000 -8.261538
v 9.999999 0.150000 -9.030770
v 9.999999 0.150000 -9.430770
v -10.000002 0.150000 -9.430768
v -10.000002 0.150000 -9.030768
v 9.999999 0.000000 -0.260270
v 9.999999 0.060268 -0.200002
v 9.999999 0.000000 -1.029500
v 9.999999 0.060268 -0.969233
v 9.999999 0.060268 -0.569233
v 9.999999 0.000000 -0.508965
v 9.999999 0.000000 -1.798731
v 9.999999 0.060268 -1.738464
v 9.999999 0.060268 -1.338464
v 9.999999 0.000000 -1.278196
v 9.999999 0.000000 -2.567962
v 9.999999 0.060268 -2.507694
v 9.999999 0.060268 -2.107694
v 9.999999 0.000000 -2.047426
v 9.999999 0.000000 -3.337193
v 9.999999 0.060268 -3.276925
v 9.999999 0.060268 -2.876925
v 9.999999 0.000000 -2.816657
v 9.999999 0.000000 -4.106423
v 9.999999 0.060268 -4.046155
v 9.999999 0.060268 -3.646155
v 9.999999 0.000000 -3.585888
v 9.999999 0.000000 -4.875653
v 9.999999 0.060268 -4.815386
v 9.999999 0.060268 -4.415386
v 9.999999 0.000000 -4.355119
v 9.999999 0.000000 -5.644884
v 9.999999 0.060268 -5.584617
v 9.999999 0.060268 -5.184617
v 9.999999 0.000000 -5.124350
v 9.999999 0.000000 -6.414115
v 9.999999 0.060268 -6.353848
v 9.999999 0.060268 -5.953848
v 9.999999 0.000000 -5.893580
v 9.999999 0.000000 -7.183346
v 9.999999 0.060268 -7.123078
v 9.999999 0.060268 -6.723079
v 9.999999 0.000000 -6.662811
v 9.999999 0.000000 -7.952577
v 9.999999 0.060268 -7.892309
v 9.999999 0.060268 -7.492310
v 9.999999 0.000000 -7.432042
v 9.999999 0.000000 -8.721807
v 9.999999 0.060268 -8.661540
v 9.999999 0.060268 -8.261540
v 9.999999 0.000000 -8.201273
v 9.999999 0.000000 -9.491037
v 9.999999 0.060268 -9.430770
v 9.999999 0.060268 -9.030770
v 9.999999 0.000000 -8.970503
v -10.000002 0.000000 -8.970501
v -10.000002 0.060268 -9.030768
v -10.000002 0.060268 -9.430768
v -10.000002 0.000000 -9.491035
v -10.000002 0.000000 -8.201270
v -10.000002 0.060268 -8.261538
v -10.000002 0.060268 -8.661537
v -10.000002 0.000000 -8.721805
v -10.000002 0.000000 -7.432039
v -10.000002 0.060268 -7.492307
v -10.000002 0.060268 -7.892306
v -10.000002 0.000000 -7.952574
v -10.000002 0.000000 -6.662808
v -10.000002 0.060268 -6.723076
v -10.000002 0.060268 -7.123075
v -10.000002 0.000000 -7.183343
v -10.000002 0.000000 -5.893578
v -10.000002 0.060268 -5.953845
v -10.000002 0.060268 -6.353845
v -10.000002 0.000000 -6.414112
v -10.000002 0.000000 -5.124347
v -10.000002 0.060268 -5.184614
v -10.000002 0.060268 -5.584614
v -10.000002 0.000000 -5.644881
v -10.000002 0.000000 -4.355116
v -10.000002 0.060268 -4.415383
v -10.000002 0.060268 -4.815383
v -10.000002 0.000000 -4.875650
v -10.000002 0.000000 -3.585885
v -10.000002 0.060268 -3.646152
v -10.000002 0.060268 -4.046152
v -10.000002 0.000000 -4.106420
v -10.000002 0.000000 -2.816654
v -10.000002 0.060268 -2.876921
v -10.000002 0.060268 -3.276922
v -10.000002 0.000000 -3.337189
v -10.000002 0.000000 -2.047423
v -10.000002 0.060268 -2.107691
v -10.000002 0.060268 -2.507691
v -10.000002 0.000000 -2.567958
v -10.000002 0.000000 -1.278192
v -10.000002 0.060268 -1.338460
v -10.000002 0.060268 -1.738460
v -10.000002 0.000000 -1.798728
v -10.000002 0.000000 -0.508961
v -10.000002 0.060268 -0.569229
v -10.000002 0.060268 -0.969229
v -10.000002 0.000000 -1.029497
v -10.000002 0.060268 -0.199998
v -10.000002 0.000000 -0.260266
v 9.999999 0.150000 0.000000
v -10.000002 0.150000 0.000000
vt 0.000278 0.532418
vt 0.995755 0.531803
vt 0.995818 0.538229
vt 0.000341 0.538844
vt 0.000522 0.571913
vt 0.995999 0.571299
vt 0.996062 0.577725
vt 0.000585 0.578340
vt 0.000766 0.611409
vt 0.996243 0.610795
vt 0.996306 0.617221
vt 0.000829 0.617835
vt 0.001010 0.650905
vt 0.996486 0.650291
vt 0.996550 0.656718
vt 0.001073 0.657331
vt 0.001253 0.690400
vt 0.996730 0.689788
vt 0.996793 0.696214
vt 0.001316 0.696826
vt 0.001497 0.729896
vt 0.996974 0.729284
vt 0.997037 0.735710
vt 0.001560 0.736322
vt 0.001741 0.769392
vt 0.997217 0.768780
vt 0.997280 0.775206
vt 0.001804 0.775818
vt 0.001984 0.808887
vt 0.997461 0.808276
vt 0.997524 0.814702
vt 0.002047 0.815313
vt 0.002228 0.848383
vt 0.997705 0.847772
vt 0.997767 0.854199
vt 0.002291 0.854809
vt 0.002471 0.887878
vt 0.997948 0.887268
vt 0.998011 0.893695
vt 0.002534 0.894305
vt 0.002715 0.927374
vt 0.998191 0.926765
vt 0.998254 0.933191
vt 0.002777 0.933800
vt 0.002958 0.966870
vt 0.998435 0.966261
vt 0.998498 0.972687
vt 0.003021 0.973296
vt 0.997356 0.788997
vt 0.001879 0.789608
vt 0.001816 0.783182
vt 0.997293 0.782571
vt 0.997176 0.755927
vt 0.997154 0.762354
vt 0.001677 0.762965
vt 0.001699 0.756539
vt 0.997112 0.749501
vt 0.001635 0.750113
vt 0.001572 0.743686
vt 0.997049 0.743075
vt 0.996932 0.716431
vt 0.996910 0.722858
vt 0.001434 0.723470
vt 0.001455 0.717043
vt 0.996869 0.710005
vt 0.001392 0.710617
vt 0.001329 0.704191
vt 0.996806 0.703579
vt 0.996688 0.676935
vt 0.996667 0.683361
vt 0.001190 0.683974
vt 0.001211 0.677547
vt 0.995830 0.545594
vt 0.000353 0.546208
vt 0.996074 0.585090
vt 0.000597 0.585704
vt 0.996318 0.624586
vt 0.000841 0.625199
vt 0.996562 0.664082
vt 0.001085 0.664695
vt 0.997536 0.822067
vt 0.002059 0.822678
vt 0.997780 0.861563
vt 0.002303 0.862173
vt 0.998023 0.901060
vt 0.002546 0.901669
vt 0.998266 0.940556
vt 0.002790 0.941164
vt 0.998510 0.980052
vt 0.003033 0.980660
vt 0.997419 0.795423
vt 0.997398 0.801850
vt 0.001921 0.802461
vt 0.001942 0.796034
vt 0.997599 0.828493
vt 0.002122 0.829104
vt 0.997663 0.834920
vt 0.997641 0.841346
vt 0.002164 0.841957
vt 0.002186 0.835530
vt 0.997843 0.867990
vt 0.002366 0.868599
vt 0.997906 0.874416
vt 0.997885 0.880842
vt 0.002408 0.881452
vt 0.002429 0.875026
vt 0.998086 0.907486
vt 0.002609 0.908095
vt 0.998149 0.913912
vt 0.998128 0.920338
vt 0.002651 0.920948
vt 0.002673 0.914521
vt 0.998329 0.946982
vt 0.002853 0.947591
vt 0.998393 0.953408
vt 0.998371 0.959835
vt 0.002894 0.960443
vt 0.002916 0.954017
vt 0.998573 0.986478
vt 0.003096 0.987086
vt 0.995650 0.512524
vt 0.000172 0.513139
vt 0.000109 0.506713
vt 0.995586 0.506098
vt 0.998636 0.992904
vt 0.998616 0.999331
vt 0.003140 0.999939
vt 0.003159 0.993512
vt 0.995713 0.518950
vt 0.995692 0.525377
vt 0.000214 0.525992
vt 0.000236 0.519565
vt 0.995893 0.552020
vt 0.000416 0.552634
vt 0.995957 0.558446
vt 0.995935 0.564873
vt 0.000458 0.565487
vt 0.000480 0.559061
vt 0.996137 0.591516
vt 0.000660 0.592130
vt 0.996201 0.597942
vt 0.996179 0.604369
vt 0.000702 0.604983
vt 0.000724 0.598556
vt 0.996381 0.631012
vt 0.000904 0.631626
vt 0.996445 0.637439
vt 0.996423 0.643865
vt 0.000946 0.644478
vt 0.000968 0.638052
vt 0.996625 0.670509
vt 0.001148 0.671121
vt 0.000061 0.500286
vt 0.995538 0.499671
vt 0.000280 0.468157
vt 0.000353 0.461732
vt 0.995830 0.461117
vt 0.995757 0.467542
vt 0.000523 0.428664
vt 0.000596 0.422239
vt 0.996073 0.421625
vt 0.996000 0.428050
vt 0.000765 0.389172
vt 0.000838 0.382746
vt 0.996315 0.382133
vt 0.996243 0.388558
vt 0.001008 0.349679
vt 0.001081 0.343254
vt 0.996558 0.342640
vt 0.996485 0.349066
vt 0.001251 0.310186
vt 0.001323 0.303761
vt 0.996801 0.303148
vt 0.996728 0.309573
vt 0.001494 0.270693
vt 0.001566 0.264268
vt 0.997043 0.263656
vt 0.996971 0.270081
vt 0.001736 0.231201
vt 0.001809 0.224775
vt 0.997286 0.224164
vt 0.997214 0.230589
vt 0.001979 0.191708
vt 0.002052 0.185282
vt 0.997529 0.184671
vt 0.997457 0.191097
vt 0.002222 0.152215
vt 0.002295 0.145790
vt 0.997772 0.145179
vt 0.997700 0.151604
vt 0.002465 0.112722
vt 0.002538 0.106297
vt 0.998015 0.105687
vt 0.997943 0.112112
vt 0.002708 0.073229
vt 0.002781 0.066804
vt 0.998258 0.066195
vt 0.998186 0.072620
vt 0.002952 0.033737
vt 0.003024 0.027311
vt 0.998501 0.026702
vt 0.998429 0.033128
vt 0.997347 0.210374
vt 0.997274 0.216799
vt 0.001797 0.217410
vt 0.001869 0.210985
vt 0.997178 0.243441
vt 0.001701 0.244053
vt 0.001662 0.237626
vt 0.997140 0.237014
vt 0.997104 0.249866
vt 0.997031 0.256292
vt 0.001554 0.256903
vt 0.001627 0.250478
vt 0.996935 0.282933
vt 0.001458 0.283545
vt 0.001420 0.277119
vt 0.996897 0.276507
vt 0.996861 0.289358
vt 0.996788 0.295784
vt 0.001311 0.296396
vt 0.001384 0.289971
vt 0.996692 0.322425
vt 0.001215 0.323038
vt 0.001177 0.316611
vt 0.996654 0.315999
vt 0.995818 0.453753
vt 0.000341 0.454367
vt 0.996060 0.414260
vt 0.000583 0.414874
vt 0.996303 0.374768
vt 0.000826 0.375381
vt 0.996546 0.335276
vt 0.001068 0.335889
vt 0.997517 0.177307
vt 0.002040 0.177917
vt 0.997760 0.137815
vt 0.002283 0.138425
vt 0.998003 0.098323
vt 0.002526 0.098932
vt 0.998246 0.058830
vt 0.002769 0.059439
vt 0.998489 0.019338
vt 0.003012 0.019946
vt 0.997421 0.203949
vt 0.001944 0.204560
vt 0.001905 0.198133
vt 0.997382 0.197522
vt 0.997590 0.170882
vt 0.002112 0.171492
vt 0.997664 0.164456
vt 0.002186 0.165067
vt 0.002148 0.158640
vt 0.997625 0.158030
vt 0.997833 0.131390
vt 0.002355 0.131999
vt 0.997907 0.124964
vt 0.002429 0.125574
vt 0.002391 0.119147
vt 0.997868 0.118538
vt 0.998076 0.091897
vt 0.002598 0.092507
vt 0.998150 0.085472
vt 0.002673 0.086081
vt 0.002634 0.079655
vt 0.998111 0.079045
vt 0.998319 0.052405
vt 0.002841 0.053014
vt 0.998393 0.045980
vt 0.002916 0.046589
vt 0.002877 0.040162
vt 0.998355 0.039553
vt 0.998562 0.012913
vt 0.003085 0.013521
vt 0.995648 0.486820
vt 0.995575 0.493245
vt 0.000098 0.493860
vt 0.000171 0.487435
vt 0.998636 0.006488
vt 0.003159 0.007096
vt 0.003122 0.000669
vt 0.998599 0.000061
vt 0.995722 0.480394
vt 0.000245 0.481009
vt 0.000206 0.474583
vt 0.995683 0.473968
vt 0.995890 0.447327
vt 0.000413 0.447942
vt 0.995964 0.440902
vt 0.000487 0.441516
vt 0.000449 0.435090
vt 0.995926 0.434475
vt 0.996133 0.407835
vt 0.000656 0.408449
vt 0.996207 0.401410
vt 0.000730 0.402024
vt 0.000691 0.395597
vt 0.996169 0.394983
vt 0.996375 0.368343
vt 0.000898 0.368956
vt 0.996450 0.361918
vt 0.000972 0.362531
vt 0.000934 0.356104
vt 0.996411 0.355491
vt 0.996618 0.328851
vt 0.001141 0.329463
vn -0.0000 0.0000 1.0000
vn 0.0000 0.0000 -1.0000
vn 0.0000 -1.0000 0.0000
vn 0.0000 -0.7071 -0.7071
vn -0.0000 -0.7071 0.7071
usemtl Material
s off
f 148/1/1 57/2/1 5/3/1 8/4/1
f 144/5/1 61/6/1 9/7/1 12/8/1
f 140/9/1 65/10/1 13/11/1 16/12/1
f 136/13/1 69/14/1 17/15/1 20/16/1
f 132/17/1 73/18/1 21/19/1 24/20/1
f 128/21/1 77/22/1 25/23/1 28/24/1
f 124/25/1 81/26/1 29/27/1 32/28/1
f 120/29/1 85/30/1 33/31/1 36/32/1
f 116/33/1 89/34/1 37/35/1 40/36/1
f 112/37/1 93/38/1 41/39/1 44/40/1
f 108/41/1 97/42/1 45/43/1 48/44/1
f 104/45/1 101/46/1 49/47/1 52/48/1
f 80/49/2 125/50/2 31/51/2 30/52/2
f 75/53/3 82/54/3 123/55/3 130/56/3
f 76/57/2 129/58/2 27/59/2 26/60/2
f 71/61/3 78/62/3 127/63/3 134/64/3
f 72/65/2 133/66/2 23/67/2 22/68/2
f 67/69/3 74/70/3 131/71/3 138/72/3
f 6/73/3 7/74/3 8/4/3 5/3/3
f 10/75/3 11/76/3 12/8/3 9/7/3
f 14/77/3 15/78/3 16/12/3 13/11/3
f 18/79/3 19/80/3 20/16/3 17/15/3
f 22/68/3 23/67/3 24/20/3 21/19/3
f 26/60/3 27/59/3 28/24/3 25/23/3
f 30/52/3 31/51/3 32/28/3 29/27/3
f 34/81/3 35/82/3 36/32/3 33/31/3
f 38/83/3 39/84/3 40/36/3 37/35/3
f 42/85/3 43/86/3 44/40/3 41/39/3
f 46/87/3 47/88/3 48/44/3 45/43/3
f 50/89/3 51/90/3 52/48/3 49/47/3
f 79/91/3 86/92/3 119/93/3 126/94/3
f 84/95/2 121/96/2 35/82/2 34/81/2
f 83/97/3 90/98/3 115/99/3 122/100/3
f 88/101/2 117/102/2 39/84/2 38/83/2
f 87/103/3 94/104/3 111/105/3 118/106/3
f 92/107/2 113/108/2 43/86/2 42/85/2
f 91/109/3 98/110/3 107/111/3 114/112/3
f 96/113/2 109/114/2 47/88/2 46/87/2
f 95/115/3 102/116/3 103/117/3 110/118/3
f 100/119/2 105/120/2 51/90/2 50/89/2
f 54/121/2 151/122/2 4/123/2 3/124/2
f 99/125/3 2/126/3 1/127/3 106/128/3
f 53/129/3 58/130/3 147/131/3 152/132/3
f 56/133/2 149/134/2 7/74/2 6/73/2
f 55/135/3 62/136/3 143/137/3 150/138/3
f 60/139/2 145/140/2 11/76/2 10/75/2
f 59/141/3 66/142/3 139/143/3 146/144/3
f 64/145/2 141/146/2 15/78/2 14/77/2
f 63/147/3 70/148/3 135/149/3 142/150/3
f 68/151/2 137/152/2 19/80/2 18/79/2
f 53/129/4 152/132/4 151/122/4 54/121/4
f 55/135/4 150/138/4 149/134/4 56/133/4
f 147/131/5 58/130/5 57/2/5 148/1/5
f 59/141/4 146/144/4 145/140/4 60/139/4
f 143/137/5 62/136/5 61/6/5 144/5/5
f 63/147/4 142/150/4 141/146/4 64/145/4
f 139/143/5 66/142/5 65/10/5 140/9/5
f 67/69/4 138/72/4 137/152/4 68/151/4
f 135/149/5 70/148/5 69/14/5 136/13/5
f 71/61/4 134/64/4 133/66/4 72/65/4
f 131/71/5 74/70/5 73/18/5 132/17/5
f 75/53/4 130/56/4 129/58/4 76/57/4
f 127/63/5 78/62/5 77/22/5 128/21/5
f 79/91/4 126/94/4 125/50/4 80/49/4
f 123/55/5 82/54/5 81/26/5 124/25/5
f 83/97/4 122/100/4 121/96/4 84/95/4
f 119/93/5 86/92/5 85/30/5 120/29/5
f 87/103/4 118/106/4 117/102/4 88/101/4
f 115/99/5 90/98/5 89/34/5 116/33/5
f 91/109/4 114/112/4 113/108/4 92/107/4
f 111/105/5 94/104/5 93/38/5 112/37/5
f 95/115/4 110/118/4 109/114/4 96/113/4
f 107/111/5 98/110/5 97/42/5 108/41/5
f 99/125/4 106/128/4 105/120/4 100/119/4
f 103/117/5 102/116/5 101/46/5 104/45/5
f 3/124/3 4/123/3 306/153/3 305/154/3
f 300/155/2 160/156/2 157/157/2 209/158/2
f 296/159/2 164/160/2 161/161/2 213/162/2
f 292/163/2 168/164/2 165/165/2 217/166/2
f 288/167/2 172/168/2 169/169/2 221/170/2
f 284/171/2 176/172/2 173/173/2 225/174/2
f 280/175/2 180/176/2 177/177/2 229/178/2
f 276/179/2 184/180/2 181/181/2 233/182/2
f 272/183/2 188/184/2 185/185/2 237/186/2
f 268/187/2 192/188/2 189/189/2 241/190/2
f 264/191/2 196/192/2 193/193/2 245/194/2
f 260/195/2 200/196/2 197/197/2 249/198/2
f 256/199/2 204/200/2 201/201/2 253/202/2
f 232/203/1 182/204/1 183/205/1 277/206/1
f 227/207/3 282/208/3 275/209/3 234/210/3
f 228/211/1 178/212/1 179/213/1 281/214/1
f 223/215/3 286/216/3 279/217/3 230/218/3
f 224/219/1 174/220/1 175/221/1 285/222/1
f 219/223/3 290/224/3 283/225/3 226/226/3
f 158/227/3 157/157/3 160/156/3 159/228/3
f 162/229/3 161/161/3 164/160/3 163/230/3
f 166/231/3 165/165/3 168/164/3 167/232/3
f 170/233/3 169/169/3 172/168/3 171/234/3
f 174/220/3 173/173/3 176/172/3 175/221/3
f 178/212/3 177/177/3 180/176/3 179/213/3
f 182/204/3 181/181/3 184/180/3 183/205/3
f 186/235/3 185/185/3 188/184/3 187/236/3
f 190/237/3 189/189/3 192/188/3 191/238/3
f 194/239/3 193/193/3 196/192/3 195/240/3
f 198/241/3 197/197/3 200/196/3 199/242/3
f 202/243/3 201/201/3 204/200/3 203/244/3
f 231/245/3 278/246/3 271/247/3 238/248/3
f 236/249/1 186/235/1 187/236/1 273/250/1
f 235/251/3 274/252/3 267/253/3 242/254/3
f 240/255/1 190/237/1 191/238/1 269/256/1
f 239/257/3 270/258/3 263/259/3 246/260/3
f 244/261/1 194/239/1 195/240/1 265/262/1
f 243/263/3 266/264/3 259/265/3 250/266/3
f 248/267/1 198/241/1 199/242/1 261/268/1
f 247/269/3 262/270/3 255/271/3 254/272/3
f 252/273/1 202/243/1 203/244/1 257/274/1
f 206/275/1 155/276/1 156/277/1 303/278/1
f 251/279/3 258/280/3 153/281/3 154/282/3
f 205/283/3 304/284/3 299/285/3 210/286/3
f 208/287/1 158/227/1 159/228/1 301/288/1
f 207/289/3 302/290/3 295/291/3 214/292/3
f 212/293/1 162/229/1 163/230/1 297/294/1
f 211/295/3 298/296/3 291/297/3 218/298/3
f 216/299/1 166/231/1 167/232/1 293/300/1
f 215/301/3 294/302/3 287/303/3 222/304/3
f 220/305/1 170/233/1 171/234/1 289/306/1
f 205/283/5 206/275/5 303/278/5 304/284/5
f 207/289/5 208/287/5 301/288/5 302/290/5
f 299/285/4 300/155/4 209/158/4 210/286/4
f 211/295/5 212/293/5 297/294/5 298/296/5
f 295/291/4 296/159/4 213/162/4 214/292/4
f 215/301/5 216/299/5 293/300/5 294/302/5
f 291/297/4 292/163/4 217/166/4 218/298/4
f 219/223/5 220/305/5 289/306/5 290/224/5
f 287/303/4 288/167/4 221/170/4 222/304/4
f 223/215/5 224/219/5 285/222/5 286/216/5
f 283/225/4 284/171/4 225/174/4 226/226/4
f 227/207/5 228/211/5 281/214/5 282/208/5
f 279/217/4 280/175/4 229/178/4 230/218/4
f 231/245/5 232/203/5 277/206/5 278/246/5
f 275/209/4 276/179/4 233/182/4 234/210/4
f 235/251/5 236/249/5 273/250/5 274/252/5
f 271/247/4 272/183/4 237/186/4 238/248/4
f 239/257/5 240/255/5 269/256/5 270/258/5
f 267/253/4 268/187/4 241/190/4 242/254/4
f 243/263/5 244/261/5 265/262/5 266/264/5
f 263/259/4 264/191/4 245/194/4 246/260/4
f 247/269/5 248/267/5 261/268/5 262/270/5
f 259/265/4 260/195/4 249/198/4 250/266/4
f 251/279/5 252/273/5 257/274/5 258/280/5
f 255/271/4 256/199/4 253/202/4 254/272/4
f 155/276/3 305/154/3 306/153/3 156/277/3
