# Blender v2.79 (sub 0) OBJ File: 'wall.blend'
# www.blender.org
mtllib wall_ext.mtl
o Cube.001
v 0.000000 0.000000 0.050000
v 0.000000 3.000000 0.050000
v 0.000000 0.000000 -0.050000
v 0.000000 3.000000 -0.050000
v 5.000000 0.000000 0.050000
v 5.000000 3.000000 0.050000
v 5.000000 0.000000 -0.050000
v 5.000000 3.000000 -0.050000
v 3.245833 0.000000 0.133454
v 3.420833 0.000000 0.133454
v 1.579167 0.000000 0.133454
v 1.754167 0.000000 0.133454
v 3.245833 0.000000 -0.050000
v 3.420833 0.000000 -0.050000
v 1.579167 0.000000 -0.050000
v 1.754167 0.000000 -0.050000
v 1.754167 3.000000 -0.050000
v 1.579167 3.000000 -0.050000
v 3.420833 3.000000 -0.050000
v 3.245833 3.000000 -0.050000
v 1.754167 0.000000 0.050000
v 1.579167 0.000000 0.050000
v 3.420833 0.000000 0.050000
v 3.245833 0.000000 0.050000
v 3.245833 3.000000 0.050000
v 3.420833 3.000000 0.050000
v 1.579167 3.000000 0.050000
v 1.754167 3.000000 0.050000
v 0.087500 0.000000 -0.050000
v 0.087500 3.000000 -0.050000
v 0.087500 0.000000 0.050000
v 0.087500 3.000000 0.050000
v 4.912500 0.000000 -0.050000
v 4.912500 0.000000 0.050000
v 4.912500 3.000000 -0.050000
v 4.912500 3.000000 0.050000
v 0.000000 0.000000 0.133841
v 5.000000 0.000000 0.133841
v 0.087500 0.000000 0.133841
v 4.912500 0.000000 0.133841
v 0.000000 2.779993 0.050000
v 0.000000 2.779993 -0.050000
v 5.000000 2.779993 -0.050000
v 5.000000 2.779993 0.050000
v 3.245833 2.779993 0.133454
v 1.754167 2.779993 0.133454
v 1.579167 2.779993 0.133454
v 3.420833 2.779993 0.133454
v 3.245833 2.779993 0.050000
v 3.420833 2.779993 0.050000
v 1.579167 2.779993 0.050000
v 1.754167 2.779993 0.050000
v 1.754167 2.779993 -0.050000
v 1.579167 2.779993 -0.050000
v 3.420833 2.779993 -0.050000
v 3.245833 2.779993 -0.050000
v 0.087500 2.779993 0.050000
v 0.087500 2.779993 -0.050000
v 4.912500 2.779993 0.050000
v 4.912500 2.779993 -0.050000
v 0.000000 2.779993 0.133841
v 5.000000 2.779993 0.133841
v 0.087500 2.779993 0.133841
v 4.912500 2.779993 0.133841
vt 0.417034 0.598644
vt 0.401356 0.598644
vt 0.401356 0.384859
vt 0.417034 0.384859
vt 0.746236 0.018456
vt 0.746236 0.002778
vt 0.810016 0.002777
vt 0.810016 0.018456
vt 0.395801 0.582966
vt 0.395801 0.598644
vt 0.182017 0.598643
vt 0.182017 0.582966
vt 0.759477 0.981544
vt 0.759477 0.997222
vt 0.695698 0.997222
vt 0.695698 0.981544
vt 0.817498 0.018456
vt 0.817498 0.002777
vt 0.881278 0.002777
vt 0.881278 0.018456
vt 0.540138 0.997222
vt 0.476359 0.997222
vt 0.476359 0.783438
vt 0.540138 0.783438
vt 0.615141 0.598644
vt 0.615141 0.777883
vt 0.417034 0.777883
vt 0.611399 0.997223
vt 0.547620 0.997222
vt 0.547620 0.783438
vt 0.611399 0.783438
vt 0.405097 0.997223
vt 0.401356 0.997223
vt 0.401356 0.783438
vt 0.405097 0.783438
vt 0.952540 0.018456
vt 0.952540 0.002777
vt 0.956281 0.002778
vt 0.956281 0.018456
vt 0.181188 0.200884
vt 0.181188 0.002778
vt 0.188671 0.002778
vt 0.188671 0.200884
vt 0.830739 0.981544
vt 0.830739 0.997222
vt 0.766960 0.997222
vt 0.766960 0.981544
vt 0.395787 0.607940
vt 0.395787 0.671719
vt 0.182002 0.671719
vt 0.182002 0.607939
vt 0.395787 0.679201
vt 0.395787 0.742981
vt 0.182002 0.742981
vt 0.182002 0.679201
vt 0.468876 0.997222
vt 0.468876 0.783438
vt 0.395787 0.750463
vt 0.182002 0.750463
vt 0.888760 0.018456
vt 0.888760 0.216561
vt 0.881278 0.216561
vt 0.395787 0.814242
vt 0.395787 0.817983
vt 0.182002 0.817983
vt 0.182002 0.814242
vt 0.817499 0.216561
vt 0.810016 0.216562
vt 0.551047 0.200884
vt 0.551047 0.002778
vt 0.558530 0.002778
vt 0.558530 0.200884
vt 0.372636 0.200884
vt 0.372636 0.002777
vt 0.002777 0.200884
vt 0.002778 0.002777
vt 0.003590 0.750463
vt 0.003590 0.742980
vt 0.395787 0.604199
vt 0.182002 0.604199
vt 0.688216 0.981544
vt 0.688216 0.997222
vt 0.624437 0.997222
vt 0.624437 0.981544
vt 0.742495 0.018456
vt 0.742495 0.002778
vt 0.002777 0.817984
vt 0.002777 0.814242
vt 0.888760 0.002777
vt 0.615141 0.997223
vt 0.615140 0.783438
vt 0.002777 0.607940
vt 0.002777 0.604198
vt 0.620695 0.997222
vt 0.620695 0.981544
vt 0.809361 0.582966
vt 0.809429 0.384859
vt 0.988669 0.384921
vt 0.988600 0.583028
vt 0.003591 0.679201
vt 0.003591 0.671718
vt 0.182017 0.384859
vt 0.002777 0.582966
vt 0.002777 0.384859
vt 0.803806 0.384922
vt 0.803738 0.583029
vt 0.624498 0.582967
vt 0.624567 0.384860
vt 0.992410 0.384922
vt 0.992342 0.583029
vt 0.620757 0.582966
vt 0.620826 0.384859
vt 0.952539 0.216562
vt 0.742496 0.216562
vt 0.746237 0.216562
vt 0.688216 0.783438
vt 0.624437 0.783438
vt 0.736940 0.002777
vt 0.736940 0.200884
vt 0.367081 0.002778
vt 0.367081 0.200884
vt 0.830739 0.783438
vt 0.766960 0.783438
vt 0.956280 0.216562
vt 0.759477 0.783438
vt 0.695698 0.783438
vt 0.395801 0.384859
vt 0.615141 0.384859
vt 0.188671 0.379304
vt 0.181188 0.379304
vt 0.558530 0.379304
vt 0.551047 0.379304
vt 0.624436 0.762195
vt 0.620695 0.762194
vt 0.992280 0.762257
vt 0.988539 0.762256
vt 0.834480 0.997222
vt 0.834480 0.981544
vn -1.0000 0.0000 0.0000
vn 0.0000 0.0000 -1.0000
vn 1.0000 0.0000 0.0000
vn 0.0000 0.0000 1.0000
vn 0.0000 1.0000 0.0000
vn 0.0000 -1.0000 0.0000
usemtl None
s off
f 41/1/1 2/2/1 4/3/1 42/4/1
f 58/5/2 30/6/2 18/7/2 54/8/2
f 43/9/3 8/10/3 6/11/3 44/12/3
f 49/13/4 25/14/4 28/15/4 52/16/4
f 53/17/2 17/18/2 20/19/2 56/20/2
f 20/21/5 17/22/5 28/23/5 25/24/5
f 41/1/1 1/25/1 37/26/1 61/27/1
f 35/28/5 19/29/5 26/30/5 36/31/5
f 30/32/5 4/33/5 2/34/5 32/35/5
f 60/36/2 35/37/2 8/38/2 43/39/2
f 45/40/4 9/41/4 10/42/4 48/43/4
f 59/44/4 36/45/4 26/46/4 50/47/4
f 29/48/6 15/49/6 22/50/6 31/51/6
f 16/52/6 13/53/6 24/54/6 21/55/6
f 20/21/5 25/24/5 26/30/5 19/29/5
f 18/56/5 27/57/5 28/23/5 17/22/5
f 14/58/6 23/59/6 24/54/6 13/53/6
f 16/52/6 21/55/6 22/50/6 15/49/6
f 55/60/2 14/61/2 13/62/2 56/20/2
f 33/63/6 7/64/6 5/65/6 34/66/6
f 53/17/2 16/67/2 15/68/2 54/8/2
f 47/69/4 11/70/4 12/71/4 46/72/4
f 51/73/1 22/74/1 11/70/1 47/69/1
f 49/75/1 24/76/1 9/41/1 45/40/1
f 24/54/6 23/59/6 10/77/6 9/78/6
f 3/79/6 29/48/6 31/51/6 1/80/6
f 18/56/5 30/32/5 32/35/5 27/57/5
f 51/81/4 27/82/4 32/83/4 57/84/4
f 42/85/2 4/86/2 30/6/2 58/5/2
f 14/58/6 33/63/6 34/66/6 23/59/6
f 34/66/6 5/65/6 38/87/6 40/88/6
f 55/60/2 19/89/2 35/37/2 60/36/2
f 8/90/5 35/28/5 36/31/5 6/91/5
f 1/80/6 31/51/6 39/92/6 37/93/6
f 32/83/4 2/94/4 41/95/4 57/84/4
f 59/96/1 34/97/1 40/98/1 64/99/1
f 22/50/6 21/55/6 12/100/6 11/101/6
f 5/102/3 44/12/3 62/103/3 38/104/3
f 31/105/3 57/106/3 63/107/3 39/108/3
f 38/109/4 62/110/4 64/99/4 40/98/4
f 39/108/4 63/107/4 61/111/4 37/112/4
f 14/61/2 55/60/2 60/36/2 33/113/2
f 3/114/2 42/85/2 58/5/2 29/115/2
f 22/116/4 51/81/4 57/84/4 31/117/4
f 17/18/2 53/17/2 54/8/2 18/7/2
f 19/89/2 55/60/2 56/20/2 20/19/2
f 21/118/3 52/119/3 46/72/3 12/71/3
f 23/120/3 50/121/3 48/43/3 10/42/3
f 34/122/4 59/44/4 50/47/4 23/123/4
f 33/113/2 60/36/2 43/39/2 7/124/2
f 16/67/2 53/17/2 56/20/2 13/62/2
f 24/125/4 49/13/4 52/16/4 21/126/4
f 7/127/3 43/9/3 44/12/3 5/102/3
f 29/115/2 58/5/2 54/8/2 15/68/2
f 1/25/1 41/1/1 42/4/1 3/128/1
f 50/129/5 49/130/5 45/40/5 48/43/5
f 52/131/5 51/132/5 47/69/5 46/72/5
f 57/133/5 41/134/5 61/111/5 63/107/5
f 44/135/5 59/136/5 64/99/5 62/110/5
f 28/15/4 27/82/4 51/81/4 52/16/4
f 6/137/4 36/45/4 59/44/4 44/138/4
f 26/46/4 25/14/4 49/13/4 50/47/4
